{
  "accessors": [
    {
      "bufferView": 2,
      "componentType": 5126,
      "count": 65532,
      "max": [
        0.9680578112602234,
        1.785448431968689,
        -0.003913581371307373
      ],
      "min": [
        -0.7976599931716919,
        -1.4736394882202148,
        -0.9501152634620667
      ],
      "type": "VEC3"
    },
    {
      "bufferView": 2,
      "byteOffset": 786384,
      "componentType": 5126,
      "count": 65532,
      "max": [
        0.9999678134918213,
        0.7146068811416626,
        0.9999996423721313
      ],
      "min": [
        -0.715129554271698,
        -0.9999999403953552,
        -0.9958102703094482
      ],
      "type": "VEC3"
    },
    {
      "bufferView": 3,
      "componentType": 5126,
      "count": 65532,
      "max": [
        1.0,
        0.545231282711029,
        1.0,
        1.0
      ],
      "min": [
        -0.8335188627243042,
        -0.703145444393158,
        -0.999998152256012,
        -1.0
      ],
      "type": "VEC4"
    },
    {
      "bufferView": 1,
      "componentType": 5126,
      "count": 65532,
      "max": [
        0.8057607412338257,
        0.8879783749580383
      ],
      "min": [
        0.002944302512332797,
        0.152429461479187
      ],
      "type": "VEC2"
    },
    {
      "bufferView": 1,
      "byteOffset": 524256,
      "componentType": 5126,
      "count": 65532,
      "max": [
        0.6334719061851501,
        0.5798002481460571
      ],
      "min": [
        0.43778204917907715,
        0.23059730231761932
      ],
      "type": "VEC2"
    },
    {
      "bufferView": 0,
      "componentType": 5125,
      "count": 353229,
      "type": "SCALAR"
    },
    {
      "bufferView": 2,
      "byteOffset": 1572768,
      "componentType": 5126,
      "count": 65532,
      "max": [
        0.9615375995635986,
        1.6031278371810913,
        0.18836945295333862
      ],
      "min": [
        -0.7705130577087402,
        -1.465383768081665,
        -0.9206695556640625
      ],
      "type": "VEC3"
    },
    {
      "bufferView": 2,
      "byteOffset": 2359152,
      "componentType": 5126,
      "count": 65532,
      "max": [
        0.9822261333465576,
        0.6782968044281006,
        0.9999971985816956
      ],
      "min": [
        -0.9974871873855591,
        -0.9981621503829956,
        -0.9952865839004517
      ],
      "type": "VEC3"
    },
    {
      "bufferView": 3,
      "byteOffset": 1048512,
      "componentType": 5126,
      "count": 65532,
      "max": [
        1.0,
        0.2683330476284027,
        0.9999999403953552,
        1.0
      ],
      "min": [
        -0.2355191558599472,
        -0.1946331262588501,
        -1.0,
        -1.0
      ],
      "type": "VEC4"
    },
    {
      "bufferView": 1,
      "byteOffset": 1048512,
      "componentType": 5126,
      "count": 65532,
      "max": [
        0.8123770952224731,
        0.9193083643913269
      ],
      "min": [
        0.015454379841685295,
        0.002933637471869588
      ],
      "type": "VEC2"
    },
    {
      "bufferView": 1,
      "byteOffset": 1572768,
      "componentType": 5126,
      "count": 65532,
      "max": [
        0.6334818005561829,
        0.5640048980712891
      ],
      "min": [
        0.4379539489746094,
        0.2314847707748413
      ],
      "type": "VEC2"
    },
    {
      "bufferView": 0,
      "byteOffset": 1412916,
      "componentType": 5125,
      "count": 362412,
      "type": "SCALAR"
    },
    {
      "bufferView": 2,
      "byteOffset": 3145536,
      "componentType": 5126,
      "count": 65532,
      "max": [
        0.7460743188858032,
        0.9154459238052368,
        0.22126081585884094
      ],
      "min": [
        -0.773883581161499,
        -1.4424786567687988,
        -0.8748354911804199
      ],
      "type": "VEC3"
    },
    {
      "bufferView": 2,
      "byteOffset": 3931920,
      "componentType": 5126,
      "count": 65532,
      "max": [
        0.7124164700508118,
        0.5307796597480774,
        0.9999972581863403
      ],
      "min": [
        -0.9999990463256836,
        -0.9330240488052368,
        -0.9999963641166687
      ],
      "type": "VEC3"
    },
    {
      "bufferView": 3,
      "byteOffset": 2097024,
      "componentType": 5126,
      "count": 65532,
      "max": [
        1.0,
        0.31591564416885376,
        0.9999996423721313,
        1.0
      ],
      "min": [
        -0.029249314218759537,
        -0.3629222512245178,
        -1.0,
        -1.0
      ],
      "type": "VEC4"
    },
    {
      "bufferView": 1,
      "byteOffset": 2097024,
      "componentType": 5126,
      "count": 65532,
      "max": [
        0.614695131778717,
        0.9275941848754883
      ],
      "min": [
        0.024594150483608246,
        0.004744913894683123
      ],
      "type": "VEC2"
    },
    {
      "bufferView": 1,
      "byteOffset": 2621280,
      "componentType": 5126,
      "count": 65532,
      "max": [
        0.607231080532074,
        0.48659786581993103
      ],
      "min": [
        0.43757471442222595,
        0.23392999172210693
      ],
      "type": "VEC2"
    },
    {
      "bufferView": 0,
      "byteOffset": 2862564,
      "componentType": 5125,
      "count": 381732,
      "type": "SCALAR"
    },
    {
      "bufferView": 2,
      "byteOffset": 4718304,
      "componentType": 5126,
      "count": 65532,
      "max": [
        0.9569644331932068,
        1.928301215171814,
        0.22119250893592834
      ],
      "min": [
        -0.6291236877441406,
        -1.1935930252075195,
        -0.9421185255050659
      ],
      "type": "VEC3"
    },
    {
      "bufferView": 2,
      "byteOffset": 5504688,
      "componentType": 5126,
      "count": 65532,
      "max": [
        0.996559202671051,
        0.9423180222511292,
        0.9997548460960388
      ],
      "min": [
        -0.7124089002609253,
        -0.489930659532547,
        -0.9999624490737915
      ],
      "type": "VEC3"
    },
    {
      "bufferView": 3,
      "byteOffset": 3145536,
      "componentType": 5126,
      "count": 65532,
      "max": [
        0.9999998807907104,
        0.8209753632545471,
        0.9999998211860657,
        1.0
      ],
      "min": [
        -0.2915998101234436,
        -0.4973079264163971,
        -0.9999986290931702,
        -1.0
      ],
      "type": "VEC4"
    },
    {
      "bufferView": 1,
      "byteOffset": 3145536,
      "componentType": 5126,
      "count": 65532,
      "max": [
        0.8737428784370422,
        0.8897224068641663
      ],
      "min": [
        0.10171111673116684,
        0.03077852539718151
      ],
      "type": "VEC2"
    },
    {
      "bufferView": 1,
      "byteOffset": 3669792,
      "componentType": 5126,
      "count": 65532,
      "max": [
        0.6334437727928162,
        0.5950998067855835
      ],
      "min": [
        0.4556429088115692,
        0.26061102747917175
      ],
      "type": "VEC2"
    },
    {
      "bufferView": 0,
      "byteOffset": 4389492,
      "componentType": 5125,
      "count": 370347,
      "type": "SCALAR"
    },
    {
      "bufferView": 2,
      "byteOffset": 6291072,
      "componentType": 5126,
      "count": 65532,
      "max": [
        0.7751256227493286,
        2.024930953979492,
        0.04190441966056824
      ],
      "min": [
        -0.683087944984436,
        -1.3960902690887451,
        -0.9421144723892212
      ],
      "type": "VEC3"
    },
    {
      "bufferView": 2,
      "byteOffset": 7077456,
      "componentType": 5126,
      "count": 65532,
      "max": [
        0.999995231628418,
        0.7463465332984924,
        0.7187641263008118
      ],
      "min": [
        -0.7134756445884705,
        -0.7207741737365723,
        -0.9999971985816956
      ],
      "type": "VEC3"
    },
    {
      "bufferView": 3,
      "byteOffset": 4194048,
      "componentType": 5126,
      "count": 65532,
      "max": [
        1.0,
        0.783406674861908,
        1.0,
        1.0
      ],
      "min": [
        -0.10219510644674301,
        -0.17686697840690613,
        -1.0,
        -1.0
      ],
      "type": "VEC4"
    },
    {
      "bufferView": 1,
      "byteOffset": 4194048,
      "componentType": 5126,
      "count": 65532,
      "max": [
        0.8715398907661438,
        0.928067147731781
      ],
      "min": [
        0.10171110928058624,
        0.003545129206031561
      ],
      "type": "VEC2"
    },
    {
      "bufferView": 1,
      "byteOffset": 4718304,
      "componentType": 5126,
      "count": 65532,
      "max": [
        0.6124139428138733,
        0.6054667234420776
      ],
      "min": [
        0.4478215277194977,
        0.23890644311904907
      ],
      "type": "VEC2"
    },
    {
      "bufferView": 0,
      "byteOffset": 5870880,
      "componentType": 5125,
      "count": 379908,
      "type": "SCALAR"
    },
    {
      "bufferView": 2,
      "byteOffset": 7863840,
      "componentType": 5126,
      "count": 65532,
      "max": [
        0.6735076904296875,
        1.9999827146530151,
        -0.6239694356918335
      ],
      "min": [
        -0.7534171938896179,
        -1.3997138738632202,
        -0.9794235229492188
      ],
      "type": "VEC3"
    },
    {
      "bufferView": 2,
      "byteOffset": 8650224,
      "componentType": 5126,
      "count": 65532,
      "max": [
        0.7108167409896851,
        0.6661639213562012,
        -0.6001510620117188
      ],
      "min": [
        -0.716680109500885,
        -0.749415934085846,
        -0.9999960064888
      ],
      "type": "VEC3"
    },
    {
      "bufferView": 3,
      "byteOffset": 5242560,
      "componentType": 5126,
      "count": 65532,
      "max": [
        1.0,
        0.3235536217689514,
        0.7111653685569763,
        -1.0
      ],
      "min": [
        0.6973867416381836,
        -0.2584242522716522,
        -0.7143048048019409,
        -1.0
      ],
      "type": "VEC4"
    },
    {
      "bufferView": 1,
      "byteOffset": 5242560,
      "componentType": 5126,
      "count": 65532,
      "max": [
        0.4763681888580322,
        0.4985104501247406
      ],
      "min": [
        0.26752597093582153,
        0.0029336342122405767
      ],
      "type": "VEC2"
    },
    {
      "bufferView": 1,
      "byteOffset": 5766816,
      "componentType": 5126,
      "count": 65532,
      "max": [
        0.6009456515312195,
        0.6027878522872925
      ],
      "min": [
        0.4412190318107605,
        0.23851925134658813
      ],
      "type": "VEC2"
    },
    {
      "bufferView": 0,
      "byteOffset": 7390512,
      "componentType": 5125,
      "count": 372945,
      "type": "SCALAR"
    },
    {
      "bufferView": 2,
      "byteOffset": 9436608,
      "componentType": 5126,
      "count": 65532,
      "max": [
        0.706747829914093,
        2.039252758026123,
        0.13394847512245178
      ],
      "min": [
        -0.9283791780471802,
        -1.0373727083206177,
        -0.9348682165145874
      ],
      "type": "VEC3"
    },
    {
      "bufferView": 2,
      "byteOffset": 10222992,
      "componentType": 5126,
      "count": 65532,
      "max": [
        0.8763107657432556,
        0.9999848008155823,
        0.9983456134796143
      ],
      "min": [
        -0.7875853776931763,
        -0.7007613778114319,
        -0.9999999403953552
      ],
      "type": "VEC3"
    },
    {
      "bufferView": 3,
      "byteOffset": 6291072,
      "componentType": 5126,
      "count": 65532,
      "max": [
        1.0,
        0.5292655229568481,
        0.9999996423721313,
        1.0
      ],
      "min": [
        -0.30598798394203186,
        -0.20326687395572662,
        -0.9999910593032837,
        -1.0
      ],
      "type": "VEC4"
    },
    {
      "bufferView": 1,
      "byteOffset": 6291072,
      "componentType": 5126,
      "count": 65532,
      "max": [
        0.9356890320777893,
        0.8580543994903564
      ],
      "min": [
        0.10171112418174744,
        0.05752997100353241
      ],
      "type": "VEC2"
    },
    {
      "bufferView": 1,
      "byteOffset": 6815328,
      "componentType": 5126,
      "count": 65532,
      "max": [
        0.6113030314445496,
        0.6070095300674438
      ],
      "min": [
        0.42140090465545654,
        0.2773435413837433
      ],
      "type": "VEC2"
    },
    {
      "bufferView": 0,
      "byteOffset": 8882292,
      "componentType": 5125,
      "count": 368262,
      "type": "SCALAR"
    },
    {
      "bufferView": 2,
      "byteOffset": 11009376,
      "componentType": 5126,
      "count": 65532,
      "max": [
        0.7714560031890869,
        2.030031442642212,
        0.13564032316207886
      ],
      "min": [
        -0.8798928260803223,
        -1.232591152191162,
        -0.9156110286712646
      ],
      "type": "VEC3"
    },
    {
      "bufferView": 2,
      "byteOffset": 11795760,
      "componentType": 5126,
      "count": 65532,
      "max": [
        0.983172595500946,
        0.8143237829208374,
        0.9999946355819702
      ],
      "min": [
        -0.9999999403953552,
        -0.5986591577529907,
        -0.9994579553604126
      ],
      "type": "VEC3"
    },
    {
      "bufferView": 3,
      "byteOffset": 7339584,
      "componentType": 5126,
      "count": 65532,
      "max": [
        1.0,
        0.5726975202560425,
        0.999999463558197,
        1.0
      ],
      "min": [
        -0.09480810910463333,
        -0.960308849811554,
        -0.9999980926513672,
        -1.0
      ],
      "type": "VEC4"
    },
    {
      "bufferView": 1,
      "byteOffset": 7339584,
      "componentType": 5126,
      "count": 65532,
      "max": [
        0.9289361238479614,
        0.7853288650512695
      ],
      "min": [
        0.07553738355636597,
        0.0029336276929825544
      ],
      "type": "VEC2"
    },
    {
      "bufferView": 1,
      "byteOffset": 7863840,
      "componentType": 5126,
      "count": 65532,
      "max": [
        0.619913637638092,
        0.6060436964035034
      ],
      "min": [
        0.42556509375572205,
        0.25642070174217224
      ],
      "type": "VEC2"
    },
    {
      "bufferView": 0,
      "byteOffset": 10355340,
      "componentType": 5125,
      "count": 372141,
      "type": "SCALAR"
    },
    {
      "bufferView": 2,
      "byteOffset": 12582144,
      "componentType": 5126,
      "count": 65532,
      "max": [
        0.6752418875694275,
        2.015394687652588,
        0.15854500234127045
      ],
      "min": [
        -0.8553385138511658,
        -1.2922898530960083,
        -0.8144938945770264
      ],
      "type": "VEC3"
    },
    {
      "bufferView": 2,
      "byteOffset": 13368528,
      "componentType": 5126,
      "count": 65532,
      "max": [
        0.9999998211860657,
        1.0,
        0.9999979734420776
      ],
      "min": [
        -0.9799204468727112,
        -0.5660867094993591,
        -0.9245450496673584
      ],
      "type": "VEC3"
    },
    {
      "bufferView": 3,
      "byteOffset": 8388096,
      "componentType": 5126,
      "count": 65532,
      "max": [
        1.0,
        0.5911244750022888,
        1.0,
        1.0
      ],
      "min": [
        -0.09480810910463333,
        -0.47991788387298584,
        -1.0,
        -1.0
      ],
      "type": "VEC4"
    },
    {
      "bufferView": 1,
      "byteOffset": 8388096,
      "componentType": 5126,
      "count": 65532,
      "max": [
        0.832955539226532,
        0.7309065461158752
      ],
      "min": [
        0.0029336304869502783,
        0.003726842114701867
      ],
      "type": "VEC2"
    },
    {
      "bufferView": 1,
      "byteOffset": 8912352,
      "componentType": 5126,
      "count": 65532,
      "max": [
        0.6064461469650269,
        0.6044557094573975
      ],
      "min": [
        0.42867419123649597,
        0.2500286102294922
      ],
      "type": "VEC2"
    },
    {
      "bufferView": 0,
      "byteOffset": 11843904,
      "componentType": 5125,
      "count": 364674,
      "type": "SCALAR"
    },
    {
      "bufferView": 2,
      "byteOffset": 14154912,
      "componentType": 5126,
      "count": 65532,
      "max": [
        0.8453217148780823,
        2.030695915222168,
        0.036569759249687195
      ],
      "min": [
        -0.7029448747634888,
        -1.2922112941741943,
        -0.7925572991371155
      ],
      "type": "VEC3"
    },
    {
      "bufferView": 2,
      "byteOffset": 14941296,
      "componentType": 5126,
      "count": 65532,
      "max": [
        0.9956104755401611,
        0.9999994039535522,
        0.9816044569015503
      ],
      "min": [
        -0.9999807476997375,
        -0.9180997014045715,
        -0.9999997019767761
      ],
      "type": "VEC3"
    },
    {
      "bufferView": 3,
      "byteOffset": 9436608,
      "componentType": 5126,
      "count": 65532,
      "max": [
        1.0,
        0.9847900867462158,
        0.9999999403953552,
        1.0
      ],
      "min": [
        -0.2749007046222687,
        -0.856998085975647,
        -0.9999999403953552,
        -1.0
      ],
      "type": "VEC4"
    },
    {
      "bufferView": 1,
      "byteOffset": 9436608,
      "componentType": 5126,
      "count": 65532,
      "max": [
        0.9329431056976318,
        0.9895461201667786
      ],
      "min": [
        0.002933630719780922,
        0.0035166428424417973
      ],
      "type": "VEC2"
    },
    {
      "bufferView": 1,
      "byteOffset": 9960864,
      "componentType": 5126,
      "count": 65532,
      "max": [
        0.6206392049789429,
        0.606102466583252
      ],
      "min": [
        0.44557470083236694,
        0.25003761053085327
      ],
      "type": "VEC2"
    },
    {
      "bufferView": 0,
      "byteOffset": 13302600,
      "componentType": 5125,
      "count": 359235,
      "type": "SCALAR"
    },
    {
      "bufferView": 2,
      "byteOffset": 15727680,
      "componentType": 5126,
      "count": 65532,
      "max": [
        0.8322852253913879,
        2.0236148834228516,
        0.18828389048576355
      ],
      "min": [
        -0.8222251534461975,
        -1.2921500205993652,
        -0.9087347388267517
      ],
      "type": "VEC3"
    },
    {
      "bufferView": 2,
      "byteOffset": 16514064,
      "componentType": 5126,
      "count": 65532,
      "max": [
        0.9918256998062134,
        0.999976396560669,
        0.9999356269836426
      ],
      "min": [
        -0.9963870048522949,
        -0.9257646203041077,
        -1.0
      ],
      "type": "VEC3"
    },
    {
      "bufferView": 3,
      "byteOffset": 10485120,
      "componentType": 5126,
      "count": 65532,
      "max": [
        1.0,
        0.5511540174484253,
        0.999999463558197,
        1.0
      ],
      "min": [
        -0.39382633566856384,
        -0.6560603976249695,
        -0.9999996423721313,
        -1.0
      ],
      "type": "VEC4"
    },
    {
      "bufferView": 1,
      "byteOffset": 10485120,
      "componentType": 5126,
      "count": 65532,
      "max": [
        0.9294523596763611,
        0.9032919406890869
      ],
      "min": [
        0.0029336262959986925,
        0.0029336274601519108
      ],
      "type": "VEC2"
    },
    {
      "bufferView": 1,
      "byteOffset": 11009376,
      "componentType": 5126,
      "count": 65532,
      "max": [
        0.6180310845375061,
        0.6053261756896973
      ],
      "min": [
        0.43208202719688416,
        0.25004449486732483
      ],
      "type": "VEC2"
    },
    {
      "bufferView": 0,
      "byteOffset": 14739540,
      "componentType": 5125,
      "count": 328632,
      "type": "SCALAR"
    },
    {
      "bufferView": 2,
      "byteOffset": 17300448,
      "componentType": 5126,
      "count": 65532,
      "max": [
        0.7324292659759521,
        2.0383760929107666,
        0.18833357095718384
      ],
      "min": [
        -0.819486141204834,
        -1.2898987531661987,
        -0.9759279489517212
      ],
      "type": "VEC3"
    },
    {
      "bufferView": 2,
      "byteOffset": 18086832,
      "componentType": 5126,
      "count": 65532,
      "max": [
        0.9999983310699463,
        0.999999463558197,
        0.9999974966049194
      ],
      "min": [
        -0.9987751841545105,
        -0.9066838622093201,
        -0.9999907612800598
      ],
      "type": "VEC3"
    },
    {
      "bufferView": 3,
      "byteOffset": 11533632,
      "componentType": 5126,
      "count": 65532,
      "max": [
        1.0,
        0.9645146727561951,
        0.9999996423721313,
        1.0
      ],
      "min": [
        -0.2577093243598938,
        -0.6587473154067993,
        -1.0,
        -1.0
      ],
      "type": "VEC4"
    },
    {
      "bufferView": 1,
      "byteOffset": 11533632,
      "componentType": 5126,
      "count": 65532,
      "max": [
        0.9963241815567017,
        0.9840794205665588
      ],
      "min": [
        0.0029807931277900934,
        0.0039717829786241055
      ],
      "type": "VEC2"
    },
    {
      "bufferView": 1,
      "byteOffset": 12057888,
      "componentType": 5126,
      "count": 65532,
      "max": [
        0.6075895428657532,
        0.6069114208221436
      ],
      "min": [
        0.4300416111946106,
        0.25028520822525024
      ],
      "type": "VEC2"
    },
    {
      "bufferView": 0,
      "byteOffset": 16054068,
      "componentType": 5125,
      "count": 352155,
      "type": "SCALAR"
    },
    {
      "bufferView": 2,
      "byteOffset": 18873216,
      "componentType": 5126,
      "count": 65532,
      "max": [
        0.8046677112579346,
        2.0390782356262207,
        0.18746885657310486
      ],
      "min": [
        -0.8140372633934021,
        -1.2899196147918701,
        -0.97495037317276
      ],
      "type": "VEC3"
    },
    {
      "bufferView": 2,
      "byteOffset": 19659600,
      "componentType": 5126,
      "count": 65532,
      "max": [
        0.9998806715011597,
        0.9999785423278809,
        0.9999838471412659
      ],
      "min": [
        -0.9999944567680359,
        -0.6560214757919312,
        -0.9957497119903564
      ],
      "type": "VEC3"
    },
    {
      "bufferView": 3,
      "byteOffset": 12582144,
      "componentType": 5126,
      "count": 65532,
      "max": [
        0.9999999403953552,
        0.9642530679702759,
        1.0,
        1.0
      ],
      "min": [
        -0.22386330366134644,
        -0.9645366668701172,
        -1.0,
        -1.0
      ],
      "type": "VEC4"
    },
    {
      "bufferView": 1,
      "byteOffset": 12582144,
      "componentType": 5126,
      "count": 65532,
      "max": [
        0.993598997592926,
        0.985319197177887
      ],
      "min": [
        0.026283452287316322,
        0.014659179374575615
      ],
      "type": "VEC2"
    },
    {
      "bufferView": 1,
      "byteOffset": 13106400,
      "componentType": 5126,
      "count": 65532,
      "max": [
        0.6170011758804321,
        0.6069849729537964
      ],
      "min": [
        0.43336746096611023,
        0.25027841329574585
      ],
      "type": "VEC2"
    },
    {
      "bufferView": 0,
      "byteOffset": 17462688,
      "componentType": 5125,
      "count": 323121,
      "type": "SCALAR"
    },
    {
      "bufferView": 2,
      "byteOffset": 20445984,
      "componentType": 5126,
      "count": 65532,
      "max": [
        0.9564606547355652,
        2.020260810852051,
        0.20327550172805786
      ],
      "min": [
        -0.9008100032806396,
        -1.4736372232437134,
        -0.9793347120285034
      ],
      "type": "VEC3"
    },
    {
      "bufferView": 2,
      "byteOffset": 21232368,
      "componentType": 5126,
      "count": 65532,
      "max": [
        0.9961162209510803,
        0.7797501087188721,
        0.9999949336051941
      ],
      "min": [
        -0.9996861815452576,
        -0.9999997019767761,
        -0.9999735355377197
      ],
      "type": "VEC3"
    },
    {
      "bufferView": 3,
      "byteOffset": 13630656,
      "componentType": 5126,
      "count": 65532,
      "max": [
        0.9999999403953552,
        0.9196285605430603,
        0.9999998807907104,
        1.0
      ],
      "min": [
        -0.3490956425666809,
        -0.9497474431991577,
        -1.0,
        -1.0
      ],
      "type": "VEC4"
    },
    {
      "bufferView": 1,
      "byteOffset": 13630656,
      "componentType": 5126,
      "count": 65532,
      "max": [
        0.9704269170761108,
        0.9516969323158264
      ],
      "min": [
        0.0031499837059527636,
        0.002933632582426071
      ],
      "type": "VEC2"
    },
    {
      "bufferView": 1,
      "byteOffset": 14154912,
      "componentType": 5126,
      "count": 65532,
      "max": [
        0.6330705285072327,
        0.6049637794494629
      ],
      "min": [
        0.4240589737892151,
        0.23059776425361633
      ],
      "type": "VEC2"
    },
    {
      "bufferView": 0,
      "byteOffset": 18755172,
      "componentType": 5125,
      "count": 279321,
      "type": "SCALAR"
    },
    {
      "bufferView": 2,
      "byteOffset": 22018752,
      "componentType": 5126,
      "count": 65532,
      "max": [
        0.9407941699028015,
        2.0377511978149414,
        0.1932508945465088
      ],
      "min": [
        -0.94926518201828,
        -1.4728167057037354,
        -0.9784740209579468
      ],
      "type": "VEC3"
    },
    {
      "bufferView": 2,
      "byteOffset": 22805136,
      "componentType": 5126,
      "count": 65532,
      "max": [
        0.9997344613075256,
        0.999989926815033,
        0.999992311000824
      ],
      "min": [
        -0.9999944567680359,
        -0.9998957514762878,
        -0.9999960064888
      ],
      "type": "VEC3"
    },
    {
      "bufferView": 3,
      "byteOffset": 14679168,
      "componentType": 5126,
      "count": 65532,
      "max": [
        1.0,
        0.6295621395111084,
        0.9999998211860657,
        1.0
      ],
      "min": [
        -0.10951261222362518,
        -0.8957972526550293,
        -0.9999998807907104,
        -1.0
      ],
      "type": "VEC4"
    },
    {
      "bufferView": 1,
      "byteOffset": 14679168,
      "componentType": 5126,
      "count": 65532,
      "max": [
        0.9970663189888,
        0.9277259707450867
      ],
      "min": [
        0.015481983311474323,
        0.0030848667956888676
      ],
      "type": "VEC2"
    },
    {
      "bufferView": 1,
      "byteOffset": 15203424,
      "componentType": 5126,
      "count": 65532,
      "max": [
        0.631898820400238,
        0.6068416833877563
      ],
      "min": [
        0.41711941361427307,
        0.23068511486053467
      ],
      "type": "VEC2"
    },
    {
      "bufferView": 0,
      "byteOffset": 19872456,
      "componentType": 5125,
      "count": 246333,
      "type": "SCALAR"
    },
    {
      "bufferView": 2,
      "byteOffset": 23591520,
      "componentType": 5126,
      "count": 65532,
      "max": [
        0.7060799598693848,
        2.035290002822876,
        0.18808802962303162
      ],
      "min": [
        -0.960124135017395,
        -1.2903798818588257,
        -0.9308428764343262
      ],
      "type": "VEC3"
    },
    {
      "bufferView": 2,
      "byteOffset": 24377904,
      "componentType": 5126,
      "count": 65532,
      "max": [
        0.9948447942733765,
        0.9999998807907104,
        0.9999995231628418
      ],
      "min": [
        -0.9954769611358643,
        -0.8537989854812622,
        -0.9999280571937561
      ],
      "type": "VEC3"
    },
    {
      "bufferView": 3,
      "byteOffset": 15727680,
      "componentType": 5126,
      "count": 65532,
      "max": [
        1.0,
        0.28110039234161377,
        0.9999998211860657,
        1.0
      ],
      "min": [
        -0.1195724606513977,
        -0.949923038482666,
        -0.9999997615814209,
        -1.0
      ],
      "type": "VEC4"
    },
    {
      "bufferView": 1,
      "byteOffset": 15727680,
      "componentType": 5126,
      "count": 65532,
      "max": [
        0.9968450665473938,
        0.9860091805458069
      ],
      "min": [
        0.011818591505289078,
        0.0035449874121695757
      ],
      "type": "VEC2"
    },
    {
      "bufferView": 1,
      "byteOffset": 16251936,
      "componentType": 5126,
      "count": 65532,
      "max": [
        0.6046156287193298,
        0.6065915822982788
      ],
      "min": [
        0.41630151867866516,
        0.2502346932888031
      ],
      "type": "VEC2"
    },
    {
      "bufferView": 0,
      "byteOffset": 20857788,
      "componentType": 5125,
      "count": 308688,
      "type": "SCALAR"
    },
    {
      "bufferView": 2,
      "byteOffset": 25164288,
      "componentType": 5126,
      "count": 65532,
      "max": [
        0.6917680501937866,
        2.0353610515594482,
        0.15920478105545044
      ],
      "min": [
        -0.968953549861908,
        -1.2922453880310059,
        -0.8834233283996582
      ],
      "type": "VEC3"
    },
    {
      "bufferView": 2,
      "byteOffset": 25950672,
      "componentType": 5126,
      "count": 65532,
      "max": [
        0.996113121509552,
        0.999994158744812,
        0.9999995231628418
      ],
      "min": [
        -0.9999959468841553,
        -0.8941172361373901,
        -0.9999796748161316
      ],
      "type": "VEC3"
    },
    {
      "bufferView": 3,
      "byteOffset": 16776192,
      "componentType": 5126,
      "count": 65532,
      "max": [
        1.0,
        0.4917585551738739,
        0.9999999403953552,
        1.0
      ],
      "min": [
        -0.3209058344364166,
        -0.6445183753967285,
        -1.0,
        -1.0
      ],
      "type": "VEC4"
    },
    {
      "bufferView": 1,
      "byteOffset": 16776192,
      "componentType": 5126,
      "count": 65532,
      "max": [
        0.9955778121948242,
        0.98847496509552
      ],
      "min": [
        0.002933632582426071,
        0.002988060936331749
      ],
      "type": "VEC2"
    },
    {
      "bufferView": 1,
      "byteOffset": 17300448,
      "componentType": 5126,
      "count": 65532,
      "max": [
        0.6029996275901794,
        0.6065899133682251
      ],
      "min": [
        0.4162994623184204,
        0.250033438205719
      ],
      "type": "VEC2"
    },
    {
      "bufferView": 0,
      "byteOffset": 22092540,
      "componentType": 5125,
      "count": 316239,
      "type": "SCALAR"
    },
    {
      "bufferView": 2,
      "byteOffset": 26737056,
      "componentType": 5126,
      "count": 65532,
      "max": [
        0.7249070405960083,
        1.8662372827529907,
        0.03649738430976868
      ],
      "min": [
        -0.821085512638092,
        -1.2922898530960083,
        -0.812851071357727
      ],
      "type": "VEC3"
    },
    {
      "bufferView": 2,
      "byteOffset": 27523440,
      "componentType": 5126,
      "count": 65532,
      "max": [
        0.9998141527175903,
        0.9999999403953552,
        0.9999946355819702
      ],
      "min": [
        -0.9956335425376892,
        -0.9346177577972412,
        -0.9999998211860657
      ],
      "type": "VEC3"
    },
    {
      "bufferView": 3,
      "byteOffset": 17824704,
      "componentType": 5126,
      "count": 65532,
      "max": [
        1.0,
        0.5911244750022888,
        1.0,
        1.0
      ],
      "min": [
        -0.2526680529117584,
        -0.6975510716438293,
        -0.9999995827674866,
        -1.0
      ],
      "type": "VEC4"
    },
    {
      "bufferView": 1,
      "byteOffset": 17824704,
      "componentType": 5126,
      "count": 65532,
      "max": [
        0.946505069732666,
        0.9742236137390137
      ],
      "min": [
        0.013846950605511665,
        0.0029336451552808285
      ],
      "type": "VEC2"
    },
    {
      "bufferView": 1,
      "byteOffset": 18348960,
      "componentType": 5126,
      "count": 65532,
      "max": [
        0.6053903698921204,
        0.5884479284286499
      ],
      "min": [
        0.4317781329154968,
        0.25002920627593994
      ],
      "type": "VEC2"
    },
    {
      "bufferView": 0,
      "byteOffset": 23357496,
      "componentType": 5125,
      "count": 352236,
      "type": "SCALAR"
    },
    {
      "bufferView": 2,
      "byteOffset": 28309824,
      "componentType": 5126,
      "count": 65534,
      "max": [
        0.7292636036872864,
        1.7800201177597046,
        0.03651449829339981
      ],
      "min": [
        -0.831612765789032,
        -1.2919446229934692,
        -0.8150972127914429
      ],
      "type": "VEC3"
    },
    {
      "bufferView": 2,
      "byteOffset": 29096232,
      "componentType": 5126,
      "count": 65534,
      "max": [
        0.997430145740509,
        0.9999949336051941,
        0.9999880194664001
      ],
      "min": [
        -0.9999844431877136,
        -0.9325416088104248,
        -1.0
      ],
      "type": "VEC3"
    },
    {
      "bufferView": 3,
      "byteOffset": 18873216,
      "componentType": 5126,
      "count": 65534,
      "max": [
        1.0,
        0.29857707023620605,
        0.9999999403953552,
        1.0
      ],
      "min": [
        -0.22184929251670837,
        -0.20182833075523376,
        -1.0,
        -1.0
      ],
      "type": "VEC4"
    },
    {
      "bufferView": 1,
      "byteOffset": 18873216,
      "componentType": 5126,
      "count": 65534,
      "max": [
        0.9500675201416016,
        0.8847776651382446
      ],
      "min": [
        0.029610252007842064,
        0.0033785738050937653
      ],
      "type": "VEC2"
    },
    {
      "bufferView": 1,
      "byteOffset": 19397488,
      "componentType": 5126,
      "count": 65534,
      "max": [
        0.6062419414520264,
        0.5792180299758911
      ],
      "min": [
        0.43002229928970337,
        0.2500666379928589
      ],
      "type": "VEC2"
    },
    {
      "bufferView": 0,
      "byteOffset": 24766440,
      "componentType": 5125,
      "count": 334188,
      "type": "SCALAR"
    },
    {
      "bufferView": 2,
      "byteOffset": 29882640,
      "componentType": 5126,
      "count": 65532,
      "max": [
        0.7047117948532104,
        1.755099892616272,
        0.07671645283699036
      ],
      "min": [
        -0.8444538712501526,
        -1.2907406091690063,
        -0.815298855304718
      ],
      "type": "VEC3"
    },
    {
      "bufferView": 2,
      "byteOffset": 30669024,
      "componentType": 5126,
      "count": 65532,
      "max": [
        0.9999046325683594,
        0.9993808269500732,
        0.999995231628418
      ],
      "min": [
        -0.9999844431877136,
        -0.9334392547607422,
        -0.9999996423721313
      ],
      "type": "VEC3"
    },
    {
      "bufferView": 3,
      "byteOffset": 19921760,
      "componentType": 5126,
      "count": 65532,
      "max": [
        1.0,
        0.44267672300338745,
        0.9999998211860657,
        1.0
      ],
      "min": [
        -0.2526680529117584,
        -0.9098197221755981,
        -0.9999998807907104,
        -1.0
      ],
      "type": "VEC4"
    },
    {
      "bufferView": 1,
      "byteOffset": 19921760,
      "componentType": 5126,
      "count": 65532,
      "max": [
        0.9400272369384766,
        0.8849016427993774
      ],
      "min": [
        0.05020047724246979,
        0.00293364399112761
      ],
      "type": "VEC2"
    },
    {
      "bufferView": 1,
      "byteOffset": 20446016,
      "componentType": 5126,
      "count": 65532,
      "max": [
        0.602230966091156,
        0.5766037702560425
      ],
      "min": [
        0.42958366870880127,
        0.25019463896751404
      ],
      "type": "VEC2"
    },
    {
      "bufferView": 0,
      "byteOffset": 26103192,
      "componentType": 5125,
      "count": 303555,
      "type": "SCALAR"
    },
    {
      "bufferView": 2,
      "byteOffset": 31455408,
      "componentType": 5126,
      "count": 17776,
      "max": [
        0.757441520690918,
        1.8343182802200317,
        0.036553338170051575
      ],
      "min": [
        -0.7056193351745605,
        -1.2922803163528442,
        -0.8109633922576904
      ],
      "type": "VEC3"
    },
    {
      "bufferView": 2,
      "byteOffset": 31668720,
      "componentType": 5126,
      "count": 17776,
      "max": [
        0.9996693134307861,
        0.9999997615814209,
        0.995219349861145
      ],
      "min": [
        -0.9961437582969666,
        -0.9018692970275879,
        -1.0
      ],
      "type": "VEC3"
    },
    {
      "bufferView": 3,
      "byteOffset": 20970272,
      "componentType": 5126,
      "count": 17776,
      "max": [
        1.0,
        0.545231282711029,
        1.0,
        1.0
      ],
      "min": [
        -0.8335188627243042,
        -0.538944661617279,
        -0.9999983906745911,
        -1.0
      ],
      "type": "VEC4"
    },
    {
      "bufferView": 1,
      "byteOffset": 20970272,
      "componentType": 5126,
      "count": 17776,
      "max": [
        0.9388066530227661,
        0.9816198945045471
      ],
      "min": [
        0.004244184121489525,
        0.0036863861605525017
      ],
      "type": "VEC2"
    },
    {
      "bufferView": 1,
      "byteOffset": 21112480,
      "componentType": 5126,
      "count": 17776,
      "max": [
        0.6104375123977661,
        0.5850378274917603
      ],
      "min": [
        0.44528084993362427,
        0.25003042817115784
      ],
      "type": "VEC2"
    },
    {
      "bufferView": 0,
      "byteOffset": 27317412,
      "componentType": 5125,
      "count": 37545,
      "type": "SCALAR"
    },
    {
      "bufferView": 2,
      "byteOffset": 31882032,
      "componentType": 5126,
      "count": 65532,
      "max": [
        0.46435555815696716,
        2.8557214736938477,
        0.05005727708339691
      ],
      "min": [
        -0.24549221992492676,
        1.8434677124023438,
        -0.6575919985771179
      ],
      "type": "VEC3"
    },
    {
      "bufferView": 2,
      "byteOffset": 32668416,
      "componentType": 5126,
      "count": 65532,
      "max": [
        1.0,
        1.0,
        1.0
      ],
      "min": [
        -1.0,
        -1.0,
        -1.0
      ],
      "type": "VEC3"
    },
    {
      "bufferView": 1,
      "byteOffset": 21254688,
      "componentType": 5126,
      "count": 65532,
      "max": [
        0.9913821816444397,
        0.9916523694992065
      ],
      "min": [
        0.0029336276929825544,
        0.05498698353767395
      ],
      "type": "VEC2"
    },
    {
      "bufferView": 1,
      "byteOffset": 21778944,
      "componentType": 5126,
      "count": 65532,
      "max": [
        0.9891598224639893,
        0.9969260692596436
      ],
      "min": [
        0.003073914675042033,
        0.0030738674104213715
      ],
      "type": "VEC2"
    },
    {
      "bufferView": 0,
      "byteOffset": 27467592,
      "componentType": 5125,
      "count": 350925,
      "type": "SCALAR"
    },
    {
      "bufferView": 2,
      "byteOffset": 33454800,
      "componentType": 5126,
      "count": 39071,
      "max": [
        0.27535080909729004,
        2.68416166305542,
        -0.13675019145011902
      ],
      "min": [
        -0.27535080909729004,
        2.0092833042144775,
        -0.6874501705169678
      ],
      "type": "VEC3"
    },
    {
      "bufferView": 2,
      "byteOffset": 33923652,
      "componentType": 5126,
      "count": 39071,
      "max": [
        1.0,
        1.0,
        1.0
      ],
      "min": [
        -1.0,
        -1.0,
        -1.0
      ],
      "type": "VEC3"
    },
    {
      "bufferView": 1,
      "byteOffset": 22303200,
      "componentType": 5126,
      "count": 39071,
      "max": [
        0.9730226993560791,
        0.9853463172912598
      ],
      "min": [
        0.0029336176812648773,
        0.297795832157135
      ],
      "type": "VEC2"
    },
    {
      "bufferView": 1,
      "byteOffset": 22615768,
      "componentType": 5126,
      "count": 39071,
      "max": [
        0.9786241054534912,
        0.9963530898094177
      ],
      "min": [
        0.0068389419466257095,
        0.32213738560676575
      ],
      "type": "VEC2"
    },
    {
      "bufferView": 0,
      "byteOffset": 28871292,
      "componentType": 5125,
      "count": 196110,
      "type": "SCALAR"
    }
  ],
  "asset": {
    "extras": {
      "author": "oddphi5h (https://sketchfab.com/oddphi5h)",
      "license": "CC-BY-4.0 (http://creativecommons.org/licenses/by/4.0/)",
      "source": "https://sketchfab.com/3d-models/jean-paul-gaultier-le-male-elixir-75ml-5b972ac9c0784d48a12f5ae51e439926",
      "title": "Jean Paul Gaultier Le Male Elixir (75ml)"
    },
    "generator": "Sketchfab-15.58.0",
    "version": "2.0"
  },
  "bufferViews": [
    {
      "buffer": 0,
      "byteLength": 29655732,
      "name": "floatBufferViews",
      "target": 34963
    },
    {
      "buffer": 0,
      "byteLength": 22928336,
      "byteOffset": 29655732,
      "byteStride": 8,
      "name": "floatBufferViews",
      "target": 34962
    },
    {
      "buffer": 0,
      "byteLength": 34392504,
      "byteOffset": 52584068,
      "byteStride": 12,
      "name": "floatBufferViews",
      "target": 34962
    },
    {
      "buffer": 0,
      "byteLength": 21254688,
      "byteOffset": 86976572,
      "byteStride": 16,
      "name": "floatBufferViews",
      "target": 34962
    }
  ],
  "buffers": [
    {
      "byteLength": 108231260,
      "uri": "scene.bin"
    }
  ],
  "extensionsUsed": [
    "KHR_materials_clearcoat",
    "KHR_materials_transmission"
  ],
  "images": [
    {
      "uri": "textures/Glass_baseColor.png"
    },
    {
      "uri": "textures/Glass_metallicRoughness.png"
    },
    {
      "uri": "textures/Glass_normal.png"
    },
    {
      "uri": "textures/Glass_transmission.png"
    },
    {
      "uri": "textures/Chrome_baseColor.png"
    }
  ],
  "materials": [
    {
      "alphaMode": "BLEND",
      "doubleSided": true,
      "extensions": {
        "KHR_materials_clearcoat": {
          "clearcoatFactor": 0.5462672060404716,
          "clearcoatRoughnessFactor": 0.04
        },
        "KHR_materials_transmission": {
          "transmissionFactor": 1.0,
          "transmissionTexture": {
            "index": 3
          }
        }
      },
      "name": "Glass",
      "normalTexture": {
        "index": 2
      },
      "pbrMetallicRoughness": {
        "baseColorFactor": [
          0.12641114276442178,
          0.12641114276442178,
          0.12641114276442178,
          1.0
        ],
        "baseColorTexture": {
          "index": 0
        },
        "metallicRoughnessTexture": {
          "index": 1
        },
        "roughnessFactor": 0.08471846710094062
      }
    },
    {
      "doubleSided": true,
      "name": "Chrome",
      "pbrMetallicRoughness": {
        "baseColorTexture": {
          "index": 4
        },
        "metallicRoughnessTexture": {
          "index": 1
        },
        "roughnessFactor": 0.4065879824140346
      }
    }
  ],
  "meshes": [
    {
      "name": "Bottle_Glass_0",
      "primitives": [
        {
          "attributes": {
            "NORMAL": 1,
            "POSITION": 0,
            "TANGENT": 2,
            "TEXCOORD_0": 3,
            "TEXCOORD_1": 4
          },
          "indices": 5,
          "material": 0,
          "mode": 4
        }
      ]
    },
    {
      "name": "Bottle_Glass_0",
      "primitives": [
        {
          "attributes": {
            "NORMAL": 7,
            "POSITION": 6,
            "TANGENT": 8,
            "TEXCOORD_0": 9,
            "TEXCOORD_1": 10
          },
          "indices": 11,
          "material": 0,
          "mode": 4
        }
      ]
    },
    {
      "name": "Bottle_Glass_0",
      "primitives": [
        {
          "attributes": {
            "NORMAL": 13,
            "POSITION": 12,
            "TANGENT": 14,
            "TEXCOORD_0": 15,
            "TEXCOORD_1": 16
          },
          "indices": 17,
          "material": 0,
          "mode": 4
        }
      ]
    },
    {
      "name": "Bottle_Glass_0",
      "primitives": [
        {
          "attributes": {
            "NORMAL": 19,
            "POSITION": 18,
            "TANGENT": 20,
            "TEXCOORD_0": 21,
            "TEXCOORD_1": 22
          },
          "indices": 23,
          "material": 0,
          "mode": 4
        }
      ]
    },
    {
      "name": "Bottle_Glass_0",
      "primitives": [
        {
          "attributes": {
            "NORMAL": 25,
            "POSITION": 24,
            "TANGENT": 26,
            "TEXCOORD_0": 27,
            "TEXCOORD_1": 28
          },
          "indices": 29,
          "material": 0,
          "mode": 4
        }
      ]
    },
    {
      "name": "Bottle_Glass_0",
      "primitives": [
        {
          "attributes": {
            "NORMAL": 31,
            "POSITION": 30,
            "TANGENT": 32,
            "TEXCOORD_0": 33,
            "TEXCOORD_1": 34
          },
          "indices": 35,
          "material": 0,
          "mode": 4
        }
      ]
    },
    {
      "name": "Bottle_Glass_0",
      "primitives": [
        {
          "attributes": {
            "NORMAL": 37,
            "POSITION": 36,
            "TANGENT": 38,
            "TEXCOORD_0": 39,
            "TEXCOORD_1": 40
          },
          "indices": 41,
          "material": 0,
          "mode": 4
        }
      ]
    },
    {
      "name": "Bottle_Glass_0",
      "primitives": [
        {
          "attributes": {
            "NORMAL": 43,
            "POSITION": 42,
            "TANGENT": 44,
            "TEXCOORD_0": 45,
            "TEXCOORD_1": 46
          },
          "indices": 47,
          "material": 0,
          "mode": 4
        }
      ]
    },
    {
      "name": "Bottle_Glass_0",
      "primitives": [
        {
          "attributes": {
            "NORMAL": 49,
            "POSITION": 48,
            "TANGENT": 50,
            "TEXCOORD_0": 51,
            "TEXCOORD_1": 52
          },
          "indices": 53,
          "material": 0,
          "mode": 4
        }
      ]
    },
    {
      "name": "Bottle_Glass_0",
      "primitives": [
        {
          "attributes": {
            "NORMAL": 55,
            "POSITION": 54,
            "TANGENT": 56,
            "TEXCOORD_0": 57,
            "TEXCOORD_1": 58
          },
          "indices": 59,
          "material": 0,
          "mode": 4
        }
      ]
    },
    {
      "name": "Bottle_Glass_0",
      "primitives": [
        {
          "attributes": {
            "NORMAL": 61,
            "POSITION": 60,
            "TANGENT": 62,
            "TEXCOORD_0": 63,
            "TEXCOORD_1": 64
          },
          "indices": 65,
          "material": 0,
          "mode": 4
        }
      ]
    },
    {
      "name": "Bottle_Glass_0",
      "primitives": [
        {
          "attributes": {
            "NORMAL": 67,
            "POSITION": 66,
            "TANGENT": 68,
            "TEXCOORD_0": 69,
            "TEXCOORD_1": 70
          },
          "indices": 71,
          "material": 0,
          "mode": 4
        }
      ]
    },
    {
      "name": "Bottle_Glass_0",
      "primitives": [
        {
          "attributes": {
            "NORMAL": 73,
            "POSITION": 72,
            "TANGENT": 74,
            "TEXCOORD_0": 75,
            "TEXCOORD_1": 76
          },
          "indices": 77,
          "material": 0,
          "mode": 4
        }
      ]
    },
    {
      "name": "Bottle_Glass_0",
      "primitives": [
        {
          "attributes": {
            "NORMAL": 79,
            "POSITION": 78,
            "TANGENT": 80,
            "TEXCOORD_0": 81,
            "TEXCOORD_1": 82
          },
          "indices": 83,
          "material": 0,
          "mode": 4
        }
      ]
    },
    {
      "name": "Bottle_Glass_0",
      "primitives": [
        {
          "attributes": {
            "NORMAL": 85,
            "POSITION": 84,
            "TANGENT": 86,
            "TEXCOORD_0": 87,
            "TEXCOORD_1": 88
          },
          "indices": 89,
          "material": 0,
          "mode": 4
        }
      ]
    },
    {
      "name": "Bottle_Glass_0",
      "primitives": [
        {
          "attributes": {
            "NORMAL": 91,
            "POSITION": 90,
            "TANGENT": 92,
            "TEXCOORD_0": 93,
            "TEXCOORD_1": 94
          },
          "indices": 95,
          "material": 0,
          "mode": 4
        }
      ]
    },
    {
      "name": "Bottle_Glass_0",
      "primitives": [
        {
          "attributes": {
            "NORMAL": 97,
            "POSITION": 96,
            "TANGENT": 98,
            "TEXCOORD_0": 99,
            "TEXCOORD_1": 100
          },
          "indices": 101,
          "material": 0,
          "mode": 4
        }
      ]
    },
    {
      "name": "Bottle_Glass_0",
      "primitives": [
        {
          "attributes": {
            "NORMAL": 103,
            "POSITION": 102,
            "TANGENT": 104,
            "TEXCOORD_0": 105,
            "TEXCOORD_1": 106
          },
          "indices": 107,
          "material": 0,
          "mode": 4
        }
      ]
    },
    {
      "name": "Bottle_Glass_0",
      "primitives": [
        {
          "attributes": {
            "NORMAL": 109,
            "POSITION": 108,
            "TANGENT": 110,
            "TEXCOORD_0": 111,
            "TEXCOORD_1": 112
          },
          "indices": 113,
          "material": 0,
          "mode": 4
        }
      ]
    },
    {
      "name": "Bottle_Glass_0",
      "primitives": [
        {
          "attributes": {
            "NORMAL": 115,
            "POSITION": 114,
            "TANGENT": 116,
            "TEXCOORD_0": 117,
            "TEXCOORD_1": 118
          },
          "indices": 119,
          "material": 0,
          "mode": 4
        }
      ]
    },
    {
      "name": "Bottle_Glass_0",
      "primitives": [
        {
          "attributes": {
            "NORMAL": 121,
            "POSITION": 120,
            "TANGENT": 122,
            "TEXCOORD_0": 123,
            "TEXCOORD_1": 124
          },
          "indices": 125,
          "material": 0,
          "mode": 4
        }
      ]
    },
    {
      "name": "Bottle_Chrome_0",
      "primitives": [
        {
          "attributes": {
            "NORMAL": 127,
            "POSITION": 126,
            "TEXCOORD_0": 128,
            "TEXCOORD_1": 129
          },
          "indices": 130,
          "material": 1,
          "mode": 4
        }
      ]
    },
    {
      "name": "Bottle_Chrome_0",
      "primitives": [
        {
          "attributes": {
            "NORMAL": 132,
            "POSITION": 131,
            "TEXCOORD_0": 133,
            "TEXCOORD_1": 134
          },
          "indices": 135,
          "material": 1,
          "mode": 4
        }
      ]
    }
  ],
  "nodes": [
    {
      "children": [
        1
      ],
      "matrix": [
        1.0,
        0.0,
        0.0,
        0.0,
        0.0,
        2.220446049250313e-16,
        -1.0,
        0.0,
        0.0,
        1.0,
        2.220446049250313e-16,
        0.0,
        0.0,
        0.0,
        0.0,
        1.0
      ],
      "name": "Sketchfab_model"
    },
    {
      "children": [
        2
      ],
      "matrix": [
        0.009999999776482582,
        0.0,
        0.0,
        0.0,
        0.0,
        0.0,
        0.009999999776482582,
        0.0,
        0.0,
        -0.009999999776482582,
        0.0,
        0.0,
        0.0,
        0.0,
        0.0,
        1.0
      ],
      "name": "a949221b0dfe423f86a2b097b12bf168.fbx"
    },
    {
      "children": [
        3
      ],
      "name": "RootNode"
    },
    {
      "children": [
        4,
        5,
        6,
        7,
        8,
        9,
        10,
        11,
        12,
        13,
        14,
        15,
        16,
        17,
        18,
        19,
        20,
        21,
        22,
        23,
        24,
        25,
        26
      ],
      "matrix": [
        100.0,
        0.0,
        0.0,
        0.0,
        0.0,
        99.99999999999972,
        -7.5497901264043296e-06,
        0.0,
        0.0,
        7.5497901264043296e-06,
        99.99999999999972,
        0.0,
        0.0,
        184.37953186035156,
        0.0,
        1.0
      ],
      "name": "Bottle"
    },
    {
      "mesh": 0,
      "name": "Bottle_Glass_0"
    },
    {
      "mesh": 1,
      "name": "Bottle_Glass_0"
    },
    {
      "mesh": 2,
      "name": "Bottle_Glass_0"
    },
    {
      "mesh": 3,
      "name": "Bottle_Glass_0"
    },
    {
      "mesh": 4,
      "name": "Bottle_Glass_0"
    },
    {
      "mesh": 5,
      "name": "Bottle_Glass_0"
    },
    {
      "mesh": 6,
      "name": "Bottle_Glass_0"
    },
    {
      "mesh": 7,
      "name": "Bottle_Glass_0"
    },
    {
      "mesh": 8,
      "name": "Bottle_Glass_0"
    },
    {
      "mesh": 9,
      "name": "Bottle_Glass_0"
    },
    {
      "mesh": 10,
      "name": "Bottle_Glass_0"
    },
    {
      "mesh": 11,
      "name": "Bottle_Glass_0"
    },
    {
      "mesh": 12,
      "name": "Bottle_Glass_0"
    },
    {
      "mesh": 13,
      "name": "Bottle_Glass_0"
    },
    {
      "mesh": 14,
      "name": "Bottle_Glass_0"
    },
    {
      "mesh": 15,
      "name": "Bottle_Glass_0"
    },
    {
      "mesh": 16,
      "name": "Bottle_Glass_0"
    },
    {
      "mesh": 17,
      "name": "Bottle_Glass_0"
    },
    {
      "mesh": 18,
      "name": "Bottle_Glass_0"
    },
    {
      "mesh": 19,
      "name": "Bottle_Glass_0"
    },
    {
      "mesh": 20,
      "name": "Bottle_Glass_0"
    },
    {
      "mesh": 21,
      "name": "Bottle_Chrome_0"
    },
    {
      "mesh": 22,
      "name": "Bottle_Chrome_0"
    }
  ],
  "samplers": [
    {
      "magFilter": 9729,
      "minFilter": 9987,
      "wrapS": 10497,
      "wrapT": 10497
    }
  ],
  "scene": 0,
  "scenes": [
    {
      "name": "Sketchfab_Scene",
      "nodes": [
        0
      ]
    }
  ],
  "textures": [
    {
      "sampler": 0,
      "source": 0
    },
    {
      "sampler": 0,
      "source": 1
    },
    {
      "sampler": 0,
      "source": 2
    },
    {
      "sampler": 0,
      "source": 3
    },
    {
      "sampler": 0,
      "source": 4
    }
  ]
}
